<?xml version="1.0" standalone="no"?>
<!DOCTYPE svg PUBLIC "-//W3C//DTD SVG 20010904//EN"
 "http://www.w3.org/TR/2001/REC-SVG-20010904/DTD/svg10.dtd">
<svg version="1.0" xmlns="http://www.w3.org/2000/svg"
 width="182.000000pt" height="181.000000pt" viewBox="0 0 182.000000 181.000000"
 preserveAspectRatio="xMidYMid meet">

<g transform="translate(0.000000,181.000000) scale(0.100000,-0.100000)"
fill="#000000" stroke="none">
<path d="M282 1663 c-29 -42 -42 -90 -42 -152 0 -70 13 -118 46 -166 14 -21
23 -39 20 -42 -2 -2 -20 0 -40 5 -42 12 -45 5 -21 -51 20 -49 68 -102 107
-118 l33 -14 -38 -5 -39 -5 22 -28 c12 -15 44 -39 72 -53 38 -19 47 -28 39
-38 -14 -17 15 -30 98 -47 48 -9 59 -14 51 -24 -21 -26 68 -31 143 -9 14 4 17
-1 17 -28 0 -58 27 -76 239 -155 41 -15 76 -33 78 -39 2 -7 -23 -13 -70 -17
-89 -6 -132 -23 -186 -73 -29 -25 -45 -34 -52 -27 -6 6 -16 43 -22 84 l-12 74
-3 -60 c-4 -64 15 -172 30 -182 6 -3 38 22 72 55 33 33 72 65 85 72 13 7 75
15 137 19 63 4 116 10 120 13 13 14 -8 46 -45 66 -21 12 -92 40 -157 63 -155
53 -174 67 -174 126 l0 46 -60 -6 c-58 -7 -60 -6 -50 13 10 19 7 20 -60 20
-72 0 -87 9 -47 27 l22 11 -25 5 c-14 3 -50 10 -80 16 -30 6 -68 20 -84 30
l-29 19 61 12 c34 7 62 16 62 20 0 4 -27 15 -61 24 -94 27 -186 121 -111 115
15 -1 42 -1 61 -1 l34 2 -56 59 c-43 45 -59 71 -72 115 -16 56 -14 139 3 150
4 2 21 -21 37 -52 54 -103 233 -271 355 -332 66 -34 178 -70 237 -77 47 -5 61
-2 128 31 60 29 85 36 122 34 60 -4 81 -31 43 -56 -44 -30 -72 -66 -102 -132
-16 -36 -41 -80 -55 -98 -23 -31 -24 -33 -3 -20 12 7 37 39 57 71 20 31 38 57
40 57 3 0 23 -11 46 -24 65 -38 149 -56 267 -56 95 -1 103 -2 85 -16 -20 -15
-60 -27 -128 -39 -33 -5 -36 -8 -27 -25 15 -28 13 -29 -27 -23 l-38 6 19 -21
c19 -22 19 -22 -5 -23 l-24 -1 25 -8 c40 -13 60 -11 60 5 0 9 9 15 24 15 13 0
32 3 41 6 14 6 14 8 -1 25 -16 18 -16 19 15 19 41 0 82 21 115 60 45 54 41 57
-116 56 -152 -1 -217 11 -287 54 l-33 21 23 26 c36 38 92 63 159 70 66 6 70
17 13 28 -21 3 -65 19 -98 33 -81 36 -126 35 -214 -8 -70 -33 -73 -34 -134
-23 -138 24 -247 85 -380 212 -88 84 -163 179 -203 258 -14 29 -28 53 -30 53
-1 0 -11 -12 -22 -27z"/>
<path d="M1157 1164 c-8 -8 1 -24 14 -24 5 0 9 7 9 15 0 15 -12 20 -23 9z"/>
<path d="M610 285 l0 -95 65 0 c37 0 65 4 65 10 0 6 -22 10 -50 10 -49 0 -50
1 -50 29 0 28 3 30 42 33 60 4 63 28 3 28 -45 0 -46 1 -43 28 3 25 7 27 51 30
71 5 57 22 -18 22 l-65 0 0 -95z"/>
<path d="M804 313 c-20 -20 -1 -32 21 -13 18 15 45 6 45 -15 0 -9 -9 -15 -25
-15 -36 0 -68 -35 -55 -60 8 -16 20 -19 63 -18 l53 1 -4 56 c-2 31 -9 62 -14
69 -15 18 -64 15 -84 -5z m64 -80 c-4 -22 -48 -31 -48 -10 0 19 10 27 32 27
13 0 18 -6 16 -17z"/>
<path d="M976 314 c-27 -27 -17 -45 37 -68 21 -8 36 -20 32 -26 -8 -13 -31
-13 -55 2 -25 16 -38 2 -18 -19 18 -17 75 -20 90 -5 20 20 4 57 -29 67 -22 6
-33 15 -33 27 0 21 13 23 40 6 24 -15 37 -4 20 17 -16 20 -64 19 -84 -1z"/>
<path d="M1150 310 c-24 -24 -27 -82 -4 -104 19 -20 94 -22 94 -3 0 9 -10 12
-31 9 -20 -3 -34 0 -40 9 -15 25 -10 29 36 29 41 0 45 2 45 23 0 51 -63 74
-100 37z m58 -12 c20 -20 14 -28 -18 -28 -28 0 -30 2 -20 20 12 23 21 25 38 8z"/>
</g>
</svg>
