<?xml version="1.0" standalone="no"?>
<!DOCTYPE svg PUBLIC "-//W3C//DTD SVG 20010904//EN"
 "http://www.w3.org/TR/2001/REC-SVG-20010904/DTD/svg10.dtd">
<svg version="1.0" xmlns="http://www.w3.org/2000/svg"
 width="414.000000pt" height="414.000000pt" viewBox="0 0 414.000000 414.000000"
 preserveAspectRatio="xMidYMid meet" >

<g transform="translate(0.000000,414.000000) scale(0.100000,-0.100000)"
fill="#000000" stroke="none">
<path d="M1855 3849 c-362 -55 -684 -204 -940 -438 -55 -50 -105 -96 -110
-103 -6 -7 -41 -49 -77 -94 -376 -455 -499 -1126 -312 -1694 199 -603 742
-1069 1400 -1200 138 -28 441 -38 595 -20 257 29 475 95 712 214 153 77 414
250 424 282 2 5 -60 89 -137 185 -78 95 -176 218 -218 271 -42 53 -81 97 -85
98 -4 0 -39 -20 -77 -45 -152 -99 -363 -188 -535 -225 -116 -25 -441 -40 -478
-22 -12 6 -49 13 -82 16 -191 18 -479 175 -609 332 -53 65 -94 130 -86 137 3
2 46 0 95 -6 50 -5 252 -10 450 -10 341 0 364 2 435 22 41 13 122 33 180 47
213 49 362 100 515 177 369 184 589 459 645 809 15 94 9 300 -9 322 -7 8 -10
24 -6 36 4 13 1 22 -9 26 -12 4 -16 20 -16 55 l0 50 -40 -5 c-24 -3 -38 -1
-35 5 4 5 -1 9 -9 9 -11 0 -16 9 -16 30 0 17 -4 30 -10 30 -13 0 -13 -46 0
-71 7 -13 7 -19 0 -19 -5 0 -10 5 -10 11 0 5 -5 7 -10 4 -6 -4 -16 8 -22 26
-10 29 -12 30 -18 13 -4 -10 -2 -25 4 -33 8 -11 8 -13 -3 -10 -9 3 -28 -21
-55 -73 -132 -250 -386 -443 -736 -556 -278 -90 -489 -122 -856 -129 -248 -5
-504 6 -550 24 -20 8 -15 37 28 145 66 166 216 356 361 456 195 134 384 192
626 192 142 0 285 -27 407 -76 38 -15 78 -27 88 -26 11 0 38 19 61 42 76 74
128 200 128 309 0 65 -30 191 -45 191 -4 0 -8 6 -8 14 0 8 -20 36 -45 63 -44
47 -45 48 -61 28 -16 -20 -16 -20 -9 3 4 15 2 22 -7 22 -10 0 -9 3 2 10 12 8
10 10 -8 10 -15 0 -21 4 -16 12 5 8 2 9 -9 5 -10 -4 -16 -2 -14 6 1 7 -6 11
-15 11 -10 -1 -15 2 -12 7 3 5 -2 9 -11 9 -9 0 -30 9 -46 21 -16 11 -36 18
-44 15 -8 -3 -15 -1 -15 4 0 11 -54 26 -163 46 -91 16 -373 17 -472 3z m1626
-801 c0 -10 2 -10 6 0 2 6 9 12 15 12 6 0 4 -8 -5 -18 -9 -9 -20 -29 -25 -42
-8 -22 -9 -19 -8 18 0 23 4 42 8 42 5 0 8 -6 9 -12z"/>
<path d="M3372 3130 c0 -14 2 -19 5 -12 2 6 2 18 0 25 -3 6 -5 1 -5 -13z"/>
<path d="M3481 3104 c0 -11 3 -14 6 -6 3 7 2 16 -1 19 -3 4 -6 -2 -5 -13z"/>
</g>
</svg>
